<?xml version="1.0" encoding="utf-8" standalone="no"?><svg xmlns="http://www.w3.org/2000/svg" height="668" width="1287" version="1.1" xmlns:xlink="http://www.w3.org/1999/xlink"  >
<defs  >
<clipPath id="path0_338_30"  >
<path d="M 0 361 H 30 V 338 H 0 "  />
</clipPath>
</defs>
<defs  >
<clipPath id="path1080_338_31"  >
<path d="M 1080 361 H 1111 V 338 H 1080 "  />
</clipPath>
</defs>
<defs  >
<clipPath id="path772_401_171"  >
<path d="M 772 424 H 943 V 401 H 772 "  />
</clipPath>
</defs>
<defs  >
<clipPath id="path412_401_351"  >
<path d="M 412 424 H 763 V 401 H 412 "  />
</clipPath>
</defs>
<defs  >
<clipPath id="path952_401_171"  >
<path d="M 952 424 H 1123 V 401 H 952 "  />
</clipPath>
</defs>
<defs  >
<clipPath id="path1193_338_45"  >
<path d="M 1193 361 H 1238 V 338 H 1193 "  />
</clipPath>
</defs>
<defs  >
<clipPath id="path1032_305_53"  >
<path d="M 1032 328 H 1085 V 305 H 1032 "  />
</clipPath>
</defs>
<defs  >
<clipPath id="path1166_305_53"  >
<path d="M 1166 328 H 1219 V 305 H 1166 "  />
</clipPath>
</defs>
<defs  >
<clipPath id="path1132_401_165"  >
<path d="M 1132 424 H 1297 V 401 H 1132 "  />
</clipPath>
</defs>
<defs  >
<clipPath id="path935_434_253"  >
<path d="M 935 457 H 1188 V 434 H 935 "  />
</clipPath>
</defs>
<defs  >
<clipPath id="path1169_276_60"  >
<path d="M 1169 295 H 1229 V 276 H 1169 "  />
</clipPath>
</defs>
<defs  >
<clipPath id="path805_338_40"  >
<path d="M 805 361 H 845 V 338 H 805 "  />
</clipPath>
</defs>
<defs  >
<clipPath id="path924_338_44"  >
<path d="M 924 361 H 968 V 338 H 924 "  />
</clipPath>
</defs>
<defs  >
<clipPath id="path1111_338_52"  >
<path d="M 1111 361 H 1163 V 338 H 1111 "  />
</clipPath>
</defs>
<defs  >
<clipPath id="path134_401_244"  >
<path d="M 134 424 H 378 V 401 H 134 "  />
</clipPath>
</defs>
<defs  >
<clipPath id="path840_305_64"  >
<path d="M 840 328 H 904 V 305 H 840 "  />
</clipPath>
</defs>
<defs  >
<clipPath id="path683_338_53"  >
<path d="M 683 361 H 736 V 338 H 683 "  />
</clipPath>
</defs>
<defs  >
<clipPath id="path684_305_108"  >
<path d="M 684 328 H 792 V 305 H 684 "  />
</clipPath>
</defs>
<defs  >
<clipPath id="path448_338_64"  >
<path d="M 448 361 H 512 V 338 H 448 "  />
</clipPath>
</defs>
<defs  >
<clipPath id="path1020_272_101"  >
<path d="M 1020 295 H 1121 V 272 H 1020 "  />
</clipPath>
</defs>
<defs  >
<clipPath id="path1113_566_169"  >
<path d="M 1113 582 H 1282 V 566 H 1113 "  />
</clipPath>
</defs>
<defs  >
<clipPath id="path1113_585_169"  >
<path d="M 1113 601 H 1282 V 585 H 1113 "  />
</clipPath>
</defs>
<defs  >
<clipPath id="path1113_604_169"  >
<path d="M 1113 620 H 1282 V 604 H 1113 "  />
</clipPath>
</defs>
<defs  >
<clipPath id="path1113_623_169"  >
<path d="M 1113 639 H 1282 V 623 H 1113 "  />
</clipPath>
</defs>
<defs  >
<clipPath id="path1113_642_169"  >
<path d="M 1113 658 H 1282 V 642 H 1113 "  />
</clipPath>
</defs>
<defs  >
<filter height="1.9" width="1.9" y="-.5" x="-.3" id="filterShadow"  >
<feGaussianBlur result="out1" in="SourceAlpha" stdDeviation="4"  />
<feOffset dy="-4" result="out2" dx="4" in="out1"  />
<feMerge  >
<feMergeNode in="out2"  />
<feMergeNode in="SourceGraphic"  />
</feMerge>
</filter>
</defs>
<g  >
<rect style="stroke:black; stroke-width:1; fill:#FFFFFF; " height="668" width="1287" y="0" x="0"  />
<line y1="0" x2="12" style="stroke:lightgrey; stroke-width:0.5; " x1="12" y2="668"  />
<text style="font-size:11px; font-family:Verdana; stroke-dasharray:(2, 2); text-anchor:left; " y="376" x="-29"  >
1997</text>
<line y1="0" x2="72" style="stroke:lightgrey; stroke-width:0.5; " x1="72" y2="668"  />
<text style="font-size:11px; font-family:Verdana; stroke-dasharray:(2, 2); text-anchor:left; " y="376" x="31"  >
1998</text>
<line y1="0" x2="132" style="stroke:lightgrey; stroke-width:0.5; " x1="132" y2="668"  />
<text style="font-size:11px; font-family:Verdana; stroke-dasharray:(2, 2); text-anchor:left; " y="376" x="91"  >
1999</text>
<line y1="0" x2="192" style="stroke:lightgrey; stroke-width:0.5; " x1="192" y2="668"  />
<text style="font-size:11px; font-family:Verdana; stroke-dasharray:(2, 2); text-anchor:left; " y="376" x="151"  >
2000</text>
<line y1="0" x2="252" style="stroke:lightgrey; stroke-width:0.5; " x1="252" y2="668"  />
<text style="font-size:11px; font-family:Verdana; stroke-dasharray:(2, 2); text-anchor:left; " y="376" x="211"  >
2001</text>
<line y1="0" x2="312" style="stroke:lightgrey; stroke-width:0.5; " x1="312" y2="668"  />
<text style="font-size:11px; font-family:Verdana; stroke-dasharray:(2, 2); text-anchor:left; " y="376" x="271"  >
2002</text>
<line y1="0" x2="372" style="stroke:lightgrey; stroke-width:0.5; " x1="372" y2="668"  />
<text style="font-size:11px; font-family:Verdana; stroke-dasharray:(2, 2); text-anchor:left; " y="376" x="331"  >
2003</text>
<line y1="0" x2="432" style="stroke:lightgrey; stroke-width:0.5; " x1="432" y2="668"  />
<text style="font-size:11px; font-family:Verdana; stroke-dasharray:(2, 2); text-anchor:left; " y="376" x="391"  >
2004</text>
<line y1="0" x2="492" style="stroke:lightgrey; stroke-width:0.5; " x1="492" y2="668"  />
<text style="font-size:11px; font-family:Verdana; stroke-dasharray:(2, 2); text-anchor:left; " y="376" x="451"  >
2005</text>
<line y1="0" x2="552" style="stroke:lightgrey; stroke-width:0.5; " x1="552" y2="668"  />
<text style="font-size:11px; font-family:Verdana; stroke-dasharray:(2, 2); text-anchor:left; " y="376" x="511"  >
2006</text>
<line y1="0" x2="612" style="stroke:lightgrey; stroke-width:0.5; " x1="612" y2="668"  />
<text style="font-size:11px; font-family:Verdana; stroke-dasharray:(2, 2); text-anchor:left; " y="376" x="571"  >
2007</text>
<line y1="0" x2="672" style="stroke:lightgrey; stroke-width:0.5; " x1="672" y2="668"  />
<text style="font-size:11px; font-family:Verdana; stroke-dasharray:(2, 2); text-anchor:left; " y="376" x="631"  >
2008</text>
<line y1="0" x2="732" style="stroke:lightgrey; stroke-width:0.5; " x1="732" y2="668"  />
<text style="font-size:11px; font-family:Verdana; stroke-dasharray:(2, 2); text-anchor:left; " y="376" x="691"  >
2009</text>
<line y1="0" x2="792" style="stroke:lightgrey; stroke-width:0.5; " x1="792" y2="668"  />
<text style="font-size:11px; font-family:Verdana; stroke-dasharray:(2, 2); text-anchor:left; " y="376" x="751"  >
2010</text>
<line y1="0" x2="852" style="stroke:lightgrey; stroke-width:0.5; " x1="852" y2="668"  />
<text style="font-size:11px; font-family:Verdana; stroke-dasharray:(2, 2); text-anchor:left; " y="376" x="811"  >
2011</text>
<line y1="0" x2="912" style="stroke:lightgrey; stroke-width:0.5; " x1="912" y2="668"  />
<text style="font-size:11px; font-family:Verdana; stroke-dasharray:(2, 2); text-anchor:left; " y="376" x="871"  >
2012</text>
<line y1="0" x2="972" style="stroke:lightgrey; stroke-width:0.5; " x1="972" y2="668"  />
<text style="font-size:11px; font-family:Verdana; stroke-dasharray:(2, 2); text-anchor:left; " y="376" x="931"  >
2013</text>
<line y1="0" x2="1032" style="stroke:lightgrey; stroke-width:0.5; " x1="1032" y2="668"  />
<text style="font-size:11px; font-family:Verdana; stroke-dasharray:(2, 2); text-anchor:left; " y="376" x="991"  >
2014</text>
<line y1="0" x2="1092" style="stroke:lightgrey; stroke-width:0.5; " x1="1092" y2="668"  />
<text style="font-size:11px; font-family:Verdana; stroke-dasharray:(2, 2); text-anchor:left; " y="376" x="1051"  >
2015</text>
<line y1="0" x2="1152" style="stroke:lightgrey; stroke-width:0.5; " x1="1152" y2="668"  />
<text style="font-size:11px; font-family:Verdana; stroke-dasharray:(2, 2); text-anchor:left; " y="376" x="1111"  >
2016</text>
<line y1="0" x2="1212" style="stroke:lightgrey; stroke-width:0.5; " x1="1212" y2="668"  />
<text style="font-size:11px; font-family:Verdana; stroke-dasharray:(2, 2); text-anchor:left; " y="376" x="1171"  >
2017</text>
<line y1="0" x2="1272" style="stroke:lightgrey; stroke-width:0.5; " x1="1272" y2="668"  />
<text style="font-size:11px; font-family:Verdana; stroke-dasharray:(2, 2); text-anchor:left; " y="376" x="1231"  >
2018</text>
<line y1="0" x2="1332" style="stroke:lightgrey; stroke-width:0.5; " x1="1332" y2="668"  />
<text style="font-size:11px; font-family:Verdana; stroke-dasharray:(2, 2); text-anchor:left; " y="376" x="1291"  >
2019</text>
<line y1="0" x2="132" style="stroke:black; stroke-width:0.5; " x1="132" y2="668"  />
<text style="font-size:14px; font-family:Verdana; text-anchor:left; " y="19" x="66"  >
1990s</text>
<line y1="0" x2="732" style="stroke:black; stroke-width:0.5; " x1="732" y2="668"  />
<text style="font-size:14px; font-family:Verdana; text-anchor:left; " y="19" x="432"  >
2000s</text>
<line y1="0" x2="1332" style="stroke:black; stroke-width:0.5; " x1="1332" y2="668"  />
<text style="font-size:14px; font-family:Verdana; text-anchor:left; " y="19" x="1009"  >
2010s</text>
<line y1="381" x2="1287" style="stroke:grey; stroke-width:0.5; " x1="0" y2="381"  />
<line y1="349" x2="14" style="stroke:black; stroke-width:1; " x1="14" y2="381"  />
<circle cy="381" cx="14" r="2" style="stroke:black; stroke-width:1; fill:none; "  />
<line y1="349" x2="1095" style="stroke:black; stroke-width:1; " x1="1095" y2="381"  />
<circle cy="381" cx="1095" r="2" style="stroke:black; stroke-width:1; fill:none; "  />
<line y1="349" x2="1215" style="stroke:black; stroke-width:1; " x1="1215" y2="381"  />
<circle cy="381" cx="1215" r="2" style="stroke:black; stroke-width:1; fill:none; "  />
<line y1="316" x2="1058" style="stroke:black; stroke-width:1; " x1="1058" y2="381"  />
<circle cy="381" cx="1058" r="2" style="stroke:black; stroke-width:1; fill:none; "  />
<line y1="316" x2="1192" style="stroke:black; stroke-width:1; " x1="1192" y2="381"  />
<circle cy="381" cx="1192" r="2" style="stroke:black; stroke-width:1; fill:none; "  />
<line y1="285" x2="1199" style="stroke:black; stroke-width:1; " x1="1199" y2="381"  />
<circle cy="381" cx="1199" r="2" style="stroke:black; stroke-width:1; fill:none; "  />
<line y1="349" x2="825" style="stroke:black; stroke-width:1; " x1="825" y2="381"  />
<circle cy="381" cx="825" r="2" style="stroke:black; stroke-width:1; fill:none; "  />
<line y1="349" x2="946" style="stroke:black; stroke-width:1; " x1="946" y2="381"  />
<circle cy="381" cx="946" r="2" style="stroke:black; stroke-width:1; fill:none; "  />
<line y1="349" x2="1137" style="stroke:black; stroke-width:1; " x1="1137" y2="381"  />
<circle cy="381" cx="1137" r="2" style="stroke:black; stroke-width:1; fill:none; "  />
<line y1="316" x2="872" style="stroke:black; stroke-width:1; " x1="872" y2="381"  />
<circle cy="381" cx="872" r="2" style="stroke:black; stroke-width:1; fill:none; "  />
<line y1="349" x2="709" style="stroke:black; stroke-width:1; " x1="709" y2="381"  />
<circle cy="381" cx="709" r="2" style="stroke:black; stroke-width:1; fill:none; "  />
<line y1="316" x2="738" style="stroke:black; stroke-width:1; " x1="738" y2="381"  />
<circle cy="381" cx="738" r="2" style="stroke:black; stroke-width:1; fill:none; "  />
<line y1="349" x2="480" style="stroke:black; stroke-width:1; " x1="480" y2="381"  />
<circle cy="381" cx="480" r="2" style="stroke:black; stroke-width:1; fill:none; "  />
<line y1="283" x2="1070" style="stroke:black; stroke-width:1; " x1="1070" y2="381"  />
<circle cy="381" cx="1070" r="2" style="stroke:black; stroke-width:1; fill:none; "  />
<line y1="0" x2="1215" style="stroke:darkred; stroke-width:0.5; " x1="1215" y2="668"  />
</g>
<g  >
<rect style="stroke:#36AF1B; stroke-width:1; fill:#4EFB27; " height="23" filter="url(#filterShadow)" width="31" y="338" x="-1"  />
<g clip-path="url(#path0_338_30)"  >
<text style="font-size:11px; font-family:Verdana; stroke-dasharray:(2, 2); text-anchor:middle; " y="358" x="12" lengthAdjust="spacingAndGlyphs"  >
出生</text>
</g>
<polygon style="stroke:#2E9617; stroke-width:1; fill:#2E9617; " points="20,338 30,338 30,348"  />
</g>
<g  >
<rect style="stroke:#36AF1B; stroke-width:1; fill:#4EFB27; " height="23" filter="url(#filterShadow)" width="31" y="338" x="1080"  />
<g clip-path="url(#path1080_338_31)"  >
<text style="font-size:11px; font-family:Verdana; stroke-dasharray:(2, 2); text-anchor:middle; " y="358" x="1095" lengthAdjust="spacingAndGlyphs"  >
成年</text>
</g>
<polygon style="stroke:#2E9617; stroke-width:1; fill:#2E9617; " points="1101,338 1111,338 1111,348"  />
</g>
<g  >
<rect style="stroke:#1564B2; stroke-width:1; fill:#1E90FF; " height="23" filter="url(#filterShadow)" width="171" y="401" x="772"  />
<g clip-path="url(#path772_401_171)"  >
<text style="font-size:11px; font-family:Verdana; stroke-dasharray:(2, 2); text-anchor:middle; " y="421" x="857" lengthAdjust="spacingAndGlyphs"  >
初中: 星海实验中学</text>
</g>
<polygon style="stroke:#125699; stroke-width:1; fill:#125699; " points="933,401 943,401 943,411"  />
</g>
<g  >
<rect style="stroke:#1564B2; stroke-width:1; fill:#1E90FF; " height="23" filter="url(#filterShadow)" width="351" y="401" x="412"  />
<g clip-path="url(#path412_401_351)"  >
<text style="font-size:11px; font-family:Verdana; stroke-dasharray:(2, 2); text-anchor:middle; " y="421" x="587" lengthAdjust="spacingAndGlyphs"  >
小学: 江苏省黄桥实验小学</text>
</g>
<polygon style="stroke:#125699; stroke-width:1; fill:#125699; " points="753,401 763,401 763,411"  />
</g>
<g  >
<rect style="stroke:#1564B2; stroke-width:1; fill:#1E90FF; " height="23" filter="url(#filterShadow)" width="171" y="401" x="952"  />
<g clip-path="url(#path952_401_171)"  >
<text style="font-size:11px; font-family:Verdana; stroke-dasharray:(2, 2); text-anchor:middle; " y="421" x="1037" lengthAdjust="spacingAndGlyphs"  >
高中: 苏州某高中</text>
</g>
<polygon style="stroke:#125699; stroke-width:1; fill:#125699; " points="1113,401 1123,401 1123,411"  />
</g>
<g  >
<rect style="stroke:#36AF1B; stroke-width:1; fill:#4EFB27; " height="23" filter="url(#filterShadow)" width="45" y="338" x="1193"  />
<g clip-path="url(#path1193_338_45)"  >
<text style="font-size:11px; font-family:Verdana; stroke-dasharray:(2, 2); text-anchor:middle; " y="358" x="1215" lengthAdjust="spacingAndGlyphs"  >
20周岁</text>
</g>
<polygon style="stroke:#2E9617; stroke-width:1; fill:#2E9617; " points="1228,338 1238,338 1238,348"  />
</g>
<g  >
<rect style="stroke:#A5B214; stroke-width:1; fill:#EDFF1D; " height="23" filter="url(#filterShadow)" width="53" y="305" x="1032"  />
<g clip-path="url(#path1032_305_53)"  >
<text style="font-size:11px; font-family:Verdana; stroke-dasharray:(2, 2); text-anchor:middle; " y="325" x="1058" lengthAdjust="spacingAndGlyphs"  >
入会门萨</text>
</g>
<polygon style="stroke:#8E9911; stroke-width:1; fill:#8E9911; " points="1075,305 1085,305 1085,315"  />
</g>
<g  >
<rect style="stroke:#A5B214; stroke-width:1; fill:#EDFF1D; " height="23" filter="url(#filterShadow)" width="53" y="305" x="1166"  />
<g clip-path="url(#path1166_305_53)"  >
<text style="font-size:11px; font-family:Verdana; stroke-dasharray:(2, 2); text-anchor:middle; " y="325" x="1192" lengthAdjust="spacingAndGlyphs"  >
入会胜寒</text>
</g>
<polygon style="stroke:#8E9911; stroke-width:1; fill:#8E9911; " points="1209,305 1219,305 1219,315"  />
</g>
<g  >
<rect style="stroke:#1564B2; stroke-width:1; fill:#1E90FF; " height="23" filter="url(#filterShadow)" width="165" y="401" x="1132"  />
<g clip-path="url(#path1132_401_165)"  >
<text style="font-size:11px; font-family:Verdana; stroke-dasharray:(2, 2); text-anchor:middle; " y="421" x="1214" lengthAdjust="spacingAndGlyphs"  >
本科: 威斯康辛大学麦迪逊分校</text>
</g>
<polygon style="stroke:#125699; stroke-width:1; fill:#125699; " points="1287,401 1297,401 1297,411"  />
</g>
<g  >
<rect style="stroke:#B20000; stroke-width:1; fill:#FF0000; " height="23" filter="url(#filterShadow)" width="253" y="434" x="935"  />
<g clip-path="url(#path935_434_253)"  >
<text style="font-size:11px; font-family:Verdana; stroke-dasharray:(2, 2); text-anchor:middle; " y="454" x="1061" lengthAdjust="spacingAndGlyphs"  >
ADD 注意力缺陷综合征</text>
</g>
<polygon style="stroke:#990000; stroke-width:1; fill:#990000; " points="1178,434 1188,434 1188,444"  />
</g>
<g  >
<rect style="stroke:#A5B214; stroke-width:1; fill:#EDFF1D; " height="19" filter="url(#filterShadow)" width="60" y="276" x="1169"  />
<g clip-path="url(#path1169_276_60)"  >
<text style="font-size:11px; font-family:Verdana; stroke-dasharray:(2, 2); text-anchor:middle; " y="292" x="1199" lengthAdjust="spacingAndGlyphs"  >
UW-CSSA</text>
</g>
<polygon style="stroke:#8E9911; stroke-width:1; fill:#8E9911; " points="1219,276 1229,276 1229,286"  />
</g>
<g  >
<rect style="stroke:#A5B214; stroke-width:1; fill:#EDFF1D; " height="23" filter="url(#filterShadow)" width="40" y="338" x="805"  />
<g clip-path="url(#path805_338_40)"  >
<text style="font-size:11px; font-family:Verdana; stroke-dasharray:(2, 2); text-anchor:middle; " y="358" x="825" lengthAdjust="spacingAndGlyphs"  >
入会∅</text>
</g>
<polygon style="stroke:#8E9911; stroke-width:1; fill:#8E9911; " points="835,338 845,338 845,348"  />
</g>
<g  >
<rect style="stroke:#A5B214; stroke-width:1; fill:#EDFF1D; " height="23" filter="url(#filterShadow)" width="44" y="338" x="924"  />
<g clip-path="url(#path924_338_44)"  >
<text style="font-size:11px; font-family:Verdana; stroke-dasharray:(2, 2); text-anchor:middle; " y="358" x="946" lengthAdjust="spacingAndGlyphs"  >
创立AP</text>
</g>
<polygon style="stroke:#8E9911; stroke-width:1; fill:#8E9911; " points="958,338 968,338 968,348"  />
</g>
<g  >
<rect style="stroke:#A5B214; stroke-width:1; fill:#EDFF1D; " height="23" filter="url(#filterShadow)" width="52" y="338" x="1111"  />
<g clip-path="url(#path1111_338_52)"  >
<text style="font-size:11px; font-family:Verdana; stroke-dasharray:(2, 2); text-anchor:middle; " y="358" x="1137" lengthAdjust="spacingAndGlyphs"  >
创立CEA</text>
</g>
<polygon style="stroke:#8E9911; stroke-width:1; fill:#8E9911; " points="1153,338 1163,338 1163,348"  />
</g>
<g  >
<rect style="stroke:#1564B2; stroke-width:1; fill:#1E90FF; " height="23" filter="url(#filterShadow)" width="244" y="401" x="134"  />
<g clip-path="url(#path134_401_244)"  >
<text style="font-size:11px; font-family:Verdana; stroke-dasharray:(2, 2); text-anchor:middle; " y="421" x="256" lengthAdjust="spacingAndGlyphs"  >
探索未知</text>
</g>
<polygon style="stroke:#125699; stroke-width:1; fill:#125699; " points="368,401 378,401 378,411"  />
</g>
<g  >
<rect style="stroke:#A5B214; stroke-width:1; fill:#EDFF1D; " height="23" filter="url(#filterShadow)" width="64" y="305" x="840"  />
<g clip-path="url(#path840_305_64)"  >
<text style="font-size:11px; font-family:Verdana; stroke-dasharray:(2, 2); text-anchor:middle; " y="325" x="872" lengthAdjust="spacingAndGlyphs"  >
入会共青团</text>
</g>
<polygon style="stroke:#8E9911; stroke-width:1; fill:#8E9911; " points="894,305 904,305 904,315"  />
</g>
<g  >
<rect style="stroke:#9C00B2; stroke-width:1; fill:#E000FF; " height="23" filter="url(#filterShadow)" width="53" y="338" x="683"  />
<g clip-path="url(#path683_338_53)"  >
<text style="font-size:11px; font-family:Verdana; stroke-dasharray:(2, 2); text-anchor:middle; " y="358" x="709" lengthAdjust="spacingAndGlyphs"  >
二胡十级</text>
</g>
<polygon style="stroke:#860099; stroke-width:1; fill:#860099; " points="726,338 736,338 736,348"  />
</g>
<g  >
<rect style="stroke:#9C00B2; stroke-width:1; fill:#E000FF; " height="23" filter="url(#filterShadow)" width="108" y="305" x="684"  />
<g clip-path="url(#path684_305_108)"  >
<text style="font-size:11px; font-family:Verdana; stroke-dasharray:(2, 2); text-anchor:middle; " y="325" x="738" lengthAdjust="spacingAndGlyphs"  >
中文古风圈二胡伴奏</text>
</g>
<polygon style="stroke:#860099; stroke-width:1; fill:#860099; " points="782,305 792,305 792,315"  />
</g>
<g  >
<rect style="stroke:#A5B214; stroke-width:1; fill:#EDFF1D; " height="23" filter="url(#filterShadow)" width="64" y="338" x="448"  />
<g clip-path="url(#path448_338_64)"  >
<text style="font-size:11px; font-family:Verdana; stroke-dasharray:(2, 2); text-anchor:middle; " y="358" x="480" lengthAdjust="spacingAndGlyphs"  >
入会少先队</text>
</g>
<polygon style="stroke:#8E9911; stroke-width:1; fill:#8E9911; " points="502,338 512,338 512,348"  />
</g>
<g  >
<rect style="stroke:#9C00B2; stroke-width:1; fill:#E000FF; " height="23" filter="url(#filterShadow)" width="101" y="272" x="1020"  />
<g clip-path="url(#path1020_272_101)"  >
<text style="font-size:11px; font-family:Verdana; stroke-dasharray:(2, 2); text-anchor:middle; " y="292" x="1070" lengthAdjust="spacingAndGlyphs"  >
动漫钢琴演奏/改编</text>
</g>
<polygon style="stroke:#860099; stroke-width:1; fill:#860099; " points="1111,272 1121,272 1121,282"  />
</g>
<g  >
<rect style="stroke:black; stroke-width:1; fill:white; " height="102" width="193" y="561" x="1089"  />
<rect style="stroke:#B20000; stroke-width:1; fill:#FF0000; " height="16" width="16" y="566" x="1094"  />
<g clip-path="url(#path1113_566_169)"  >
<text style="font-size:11px; font-family:Verdana; stroke-dasharray:(2, 2); text-anchor:left; " y="579" x="1116" lengthAdjust="spacingAndGlyphs"  >
健康</text>
</g>
<rect style="stroke:#1564B2; stroke-width:1; fill:#1E90FF; " height="16" width="16" y="585" x="1094"  />
<g clip-path="url(#path1113_585_169)"  >
<text style="font-size:11px; font-family:Verdana; stroke-dasharray:(2, 2); text-anchor:left; " y="598" x="1116" lengthAdjust="spacingAndGlyphs"  >
学业</text>
</g>
<rect style="stroke:#36AF1B; stroke-width:1; fill:#4EFB27; " height="16" width="16" y="604" x="1094"  />
<g clip-path="url(#path1113_604_169)"  >
<text style="font-size:11px; font-family:Verdana; stroke-dasharray:(2, 2); text-anchor:left; " y="617" x="1116" lengthAdjust="spacingAndGlyphs"  >
生命</text>
</g>
<rect style="stroke:#A5B214; stroke-width:1; fill:#EDFF1D; " height="16" width="16" y="623" x="1094"  />
<g clip-path="url(#path1113_623_169)"  >
<text style="font-size:11px; font-family:Verdana; stroke-dasharray:(2, 2); text-anchor:left; " y="636" x="1116" lengthAdjust="spacingAndGlyphs"  >
组织</text>
</g>
<rect style="stroke:#9C00B2; stroke-width:1; fill:#E000FF; " height="16" width="16" y="642" x="1094"  />
<g clip-path="url(#path1113_642_169)"  >
<text style="font-size:11px; font-family:Verdana; stroke-dasharray:(2, 2); text-anchor:left; " y="655" x="1116" lengthAdjust="spacingAndGlyphs"  >
音乐</text>
</g>
</g>
</svg>
